<svg xmlns="http://www.w3.org/2000/svg" xmlns:xlink="http://www.w3.org/1999/xlink" width="800" zoomAndPan="magnify" viewBox="0 0 600 449.999984" height="600" preserveAspectRatio="xMidYMid meet" version="1.0"><defs><g/></defs><path fill="#4070ec" d="M 397.03125 285.90625 C 393.566406 294.28125 385.574219 300.179688 374.441406 303.5625 C 390.199219 301.417969 401.636719 295.21875 405.835938 285.066406 C 415.761719 261.082031 381.5 224.136719 329.320312 202.554688 C 326.769531 201.5 324.230469 200.507812 321.695312 199.5625 C 373.96875 223.378906 407.316406 261.042969 397.03125 285.90625 " fill-opacity="1" fill-rule="nonzero"/><path fill="#4070ec" d="M 340.835938 203.347656 C 393.019531 224.933594 427.277344 261.878906 417.355469 285.863281 C 413.054688 296.257812 401.160156 302.511719 384.820312 304.507812 C 408.980469 305.167969 427.234375 298.648438 432.796875 285.210938 C 442.71875 261.222656 408.460938 224.28125 356.28125 202.695312 C 326.710938 190.464844 297.734375 185.792969 276.367188 188.402344 C 295.320312 188.921875 317.902344 193.859375 340.835938 203.347656 " fill-opacity="1" fill-rule="nonzero"/><path fill="#4070ec" d="M 325.082031 351.214844 C 316.714844 354.6875 306.890625 353.203125 296.628906 347.722656 C 309.28125 357.347656 321.753906 361.050781 331.902344 356.84375 C 355.878906 346.902344 357.78125 296.554688 336.144531 244.398438 C 335.085938 241.847656 333.992188 239.347656 332.867188 236.886719 C 352.988281 290.691406 349.9375 340.90625 325.082031 351.214844 " fill-opacity="1" fill-rule="nonzero"/><path fill="#4070ec" d="M 343.726562 253.101562 C 365.363281 305.261719 363.460938 355.609375 339.488281 365.550781 C 329.09375 369.863281 316.261719 365.875 303.296875 355.730469 C 319.910156 373.28125 337.429688 381.578125 350.867188 376.007812 C 374.84375 366.0625 376.742188 315.714844 355.105469 263.558594 C 342.847656 234 325.664062 210.207031 308.707031 196.945312 C 321.738281 210.714844 334.21875 230.171875 343.726562 253.101562 " fill-opacity="1" fill-rule="nonzero"/><path fill="#4070ec" d="M 228.03125 346.515625 C 219.660156 343.050781 213.757812 335.058594 210.378906 323.925781 C 212.519531 339.683594 218.71875 351.121094 228.871094 355.320312 C 252.855469 365.246094 289.800781 330.984375 311.382812 278.804688 C 312.4375 276.253906 313.433594 273.714844 314.375 271.179688 C 290.558594 323.453125 252.894531 356.800781 228.03125 346.515625 " fill-opacity="1" fill-rule="nonzero"/><path fill="#4070ec" d="M 310.589844 290.320312 C 289.003906 342.503906 252.058594 376.761719 228.074219 366.839844 C 217.679688 362.539062 211.425781 350.644531 209.429688 334.304688 C 208.769531 358.464844 215.289062 376.71875 228.726562 382.28125 C 252.714844 392.203125 289.65625 357.945312 311.242188 305.765625 C 323.476562 276.195312 328.144531 247.21875 325.535156 225.851562 C 325.015625 244.804688 320.078125 267.386719 310.589844 290.320312 " fill-opacity="1" fill-rule="nonzero"/><path fill="#4070ec" d="M 162.726562 274.566406 C 159.25 266.199219 160.738281 256.375 166.214844 246.113281 C 156.589844 258.765625 152.886719 271.238281 157.09375 281.386719 C 167.035156 305.363281 217.386719 307.265625 269.542969 285.628906 C 272.089844 284.570312 274.589844 283.476562 277.050781 282.351562 C 223.246094 302.472656 173.03125 299.421875 162.726562 274.566406 " fill-opacity="1" fill-rule="nonzero"/><path fill="#4070ec" d="M 260.835938 293.210938 C 208.675781 314.847656 158.328125 312.945312 148.386719 288.972656 C 144.074219 278.578125 148.0625 265.746094 158.210938 252.78125 C 140.660156 269.394531 132.359375 286.914062 137.929688 300.351562 C 147.875 324.328125 198.222656 326.226562 250.378906 304.589844 C 279.9375 292.332031 303.730469 275.148438 316.992188 258.191406 C 303.222656 271.226562 283.765625 283.703125 260.835938 293.210938 " fill-opacity="1" fill-rule="nonzero"/><path fill="#4070ec" d="M 167.421875 177.515625 C 170.886719 169.144531 178.878906 163.242188 190.011719 159.863281 C 174.257812 162.003906 162.816406 168.203125 158.617188 178.355469 C 148.695312 202.339844 182.953125 239.285156 235.132812 260.867188 C 237.683594 261.925781 240.226562 262.917969 242.757812 263.859375 C 190.484375 240.042969 157.136719 202.378906 167.421875 177.515625 " fill-opacity="1" fill-rule="nonzero"/><path fill="#4070ec" d="M 223.617188 260.074219 C 171.433594 238.488281 137.175781 201.542969 147.097656 177.558594 C 151.398438 167.164062 163.292969 160.910156 179.632812 158.914062 C 155.472656 158.253906 137.21875 164.773438 131.65625 178.210938 C 121.734375 202.199219 155.992188 239.140625 208.171875 260.726562 C 237.742188 272.960938 266.71875 277.628906 288.085938 275.019531 C 269.132812 274.5 246.550781 269.5625 223.617188 260.074219 " fill-opacity="1" fill-rule="nonzero"/><path fill="#4070ec" d="M 239.371094 112.210938 C 247.742188 108.734375 257.5625 110.222656 267.824219 115.699219 C 255.171875 106.074219 242.699219 102.367188 232.550781 106.578125 C 208.574219 116.519531 206.671875 166.871094 228.308594 219.027344 C 229.367188 221.578125 230.460938 224.078125 231.585938 226.535156 C 211.464844 172.730469 214.515625 122.519531 239.371094 112.210938 " fill-opacity="1" fill-rule="nonzero"/><path fill="#4070ec" d="M 220.726562 210.320312 C 199.09375 158.160156 200.992188 107.8125 224.964844 97.871094 C 235.359375 93.558594 248.191406 97.546875 261.15625 107.695312 C 244.542969 90.144531 227.023438 81.84375 213.585938 87.414062 C 189.609375 97.359375 187.710938 147.707031 209.347656 199.863281 C 221.605469 229.421875 238.789062 253.214844 255.746094 266.476562 C 242.714844 252.707031 230.234375 233.25 220.726562 210.320312 " fill-opacity="1" fill-rule="nonzero"/><path fill="#4070ec" d="M 336.421875 116.90625 C 344.796875 120.371094 350.695312 128.363281 354.078125 139.496094 C 351.933594 123.742188 345.734375 112.300781 335.582031 108.101562 C 311.597656 98.179688 274.652344 132.4375 253.070312 184.617188 C 252.019531 187.167969 251.019531 189.710938 250.078125 192.242188 C 273.894531 139.96875 311.558594 106.621094 336.421875 116.90625 " fill-opacity="1" fill-rule="nonzero"/><path fill="#4070ec" d="M 253.863281 173.101562 C 275.449219 120.917969 312.394531 86.660156 336.378906 96.582031 C 346.773438 100.882812 353.027344 112.777344 355.023438 129.117188 C 355.683594 104.960938 349.164062 86.703125 335.726562 81.140625 C 311.738281 71.21875 274.796875 105.476562 253.210938 157.65625 C 240.980469 187.226562 236.304688 216.203125 238.917969 237.570312 C 239.4375 218.617188 244.375 196.035156 253.863281 173.101562 " fill-opacity="1" fill-rule="nonzero"/><path fill="#4070ec" d="M 401.730469 188.855469 C 405.199219 197.226562 403.71875 207.046875 398.238281 217.3125 C 407.863281 204.65625 411.566406 192.183594 407.359375 182.035156 C 397.417969 158.058594 347.066406 156.15625 294.910156 177.792969 C 292.363281 178.851562 289.863281 179.949219 287.402344 181.070312 C 341.207031 160.949219 391.421875 164 401.730469 188.855469 " fill-opacity="1" fill-rule="nonzero"/><path fill="#4070ec" d="M 303.617188 170.210938 C 355.777344 148.578125 406.121094 150.476562 416.066406 174.449219 C 420.378906 184.84375 416.390625 197.675781 406.246094 210.640625 C 423.796875 194.027344 432.09375 176.507812 426.523438 163.070312 C 416.578125 139.09375 366.230469 137.195312 314.074219 158.832031 C 284.515625 171.089844 260.722656 188.273438 247.460938 205.230469 C 261.230469 192.199219 280.6875 179.71875 303.617188 170.210938 " fill-opacity="1" fill-rule="nonzero"/><g fill="#ff914d" fill-opacity="1"><g transform="translate(133.468969, 250.124981)"><g><path d="M 28.78125 -8.375 C 30.90625 -10.375 32.242188 -13.191406 32.796875 -16.828125 L 21.625 -16.71875 C 19.101562 -16.695312 17.8125 -17.773438 17.75 -19.953125 C 17.6875 -21.960938 19.148438 -22.988281 22.140625 -23.03125 L 37.640625 -23.265625 C 39.566406 -23.285156 40.445312 -22.285156 40.28125 -20.265625 C 39.675781 -12.554688 37.410156 -6.921875 33.484375 -3.359375 C 29.765625 0.0546875 24.75 1.671875 18.4375 1.484375 C 13.601562 1.347656 9.710938 -0.660156 6.765625 -4.546875 C 3.796875 -8.429688 2.316406 -13.488281 2.328125 -19.71875 C 2.328125 -27.15625 3.867188 -33.140625 6.953125 -37.671875 C 9.984375 -42.160156 13.984375 -44.851562 18.953125 -45.75 C 24.054688 -46.59375 28.273438 -46.023438 31.609375 -44.046875 C 34.960938 -42.023438 36.90625 -40.101562 37.4375 -38.28125 C 37.957031 -36.4375 37.59375 -35.070312 36.34375 -34.1875 C 34.96875 -33.21875 33.144531 -33.957031 30.875 -36.40625 C 29.039062 -38.363281 26.492188 -39.414062 23.234375 -39.5625 C 21.253906 -39.632812 19.128906 -39.085938 16.859375 -37.921875 C 14.429688 -36.679688 12.515625 -34.726562 11.109375 -32.0625 C 9.441406 -28.988281 8.609375 -25.117188 8.609375 -20.453125 C 8.609375 -15.347656 9.519531 -11.613281 11.34375 -9.25 C 13.425781 -6.539062 15.765625 -5.113281 18.359375 -4.96875 C 22.679688 -4.726562 26.15625 -5.863281 28.78125 -8.375 Z M 28.78125 -8.375 "/></g></g></g><g fill="#ff914d" fill-opacity="1"><g transform="translate(174.44944, 250.124981)"><g><path d="M 15.28125 1.703125 C 6.207031 1.722656 1.640625 -3.128906 1.578125 -12.859375 C 1.515625 -19.191406 3.597656 -24.085938 7.828125 -27.546875 C 12.679688 -31.523438 17.753906 -32.675781 23.046875 -31 C 23.640625 -31.507812 24.550781 -31.617188 25.78125 -31.328125 C 28.207031 -30.785156 29.191406 -29.222656 28.734375 -26.640625 C 28.265625 -24.109375 27.976562 -19.800781 27.875 -13.71875 C 27.789062 -8.863281 28.335938 -5.421875 29.515625 -3.390625 C 31.234375 -0.441406 30.988281 1.253906 28.78125 1.703125 C 26.257812 2.222656 24.796875 1.148438 24.390625 -1.515625 C 20.203125 0.609375 17.164062 1.679688 15.28125 1.703125 Z M 18.8125 -4.40625 C 19.539062 -4.664062 20.800781 -5.53125 22.59375 -7 C 21.863281 -15.695312 21.96875 -21.6875 22.90625 -24.96875 C 20.9375 -26.195312 18.882812 -26.550781 16.75 -26.03125 C 15.25 -25.664062 14.054688 -25.148438 13.171875 -24.484375 C 9.566406 -21.867188 7.675781 -18.1875 7.5 -13.4375 C 7.550781 -7.25 9.671875 -4.015625 13.859375 -3.734375 C 15.617188 -3.609375 17.269531 -3.832031 18.8125 -4.40625 Z M 18.8125 -4.40625 "/></g></g></g><g fill="#ff914d" fill-opacity="1"><g transform="translate(204.99551, 250.124981)"><g><path d="M 7.03125 -33.1875 C 9.132812 -33.1875 10.164062 -32.1875 10.125 -30.1875 L 10.09375 -28.9375 C 11.894531 -30.550781 14.09375 -31.367188 16.6875 -31.390625 C 20.894531 -31.429688 23.734375 -29.945312 25.203125 -26.9375 C 27.265625 -29.925781 30.367188 -31.410156 34.515625 -31.390625 C 42.179688 -31.367188 45.945312 -26.757812 45.8125 -17.5625 L 45.5625 -2.484375 C 45.519531 -0.0351562 44.550781 1.265625 42.65625 1.421875 C 40.46875 1.628906 39.394531 0.507812 39.4375 -1.9375 L 39.609375 -15.921875 C 39.691406 -21.910156 38.140625 -24.945312 34.953125 -25.03125 C 31.242188 -25.125 28.722656 -23.429688 27.390625 -19.953125 C 27.328125 -19.898438 27.285156 -19.285156 27.265625 -18.109375 L 26.90625 -2.90625 C 26.84375 -0.457031 25.875 0.84375 24 1 C 21.914062 1.1875 20.90625 0.0664062 20.96875 -2.359375 L 21.265625 -16.296875 C 21.390625 -22.054688 19.894531 -24.988281 16.78125 -25.09375 C 13.28125 -25.207031 10.984375 -23.160156 9.890625 -18.953125 L 9.375 -2.1875 C 9.3125 0.0195312 8.226562 1.101562 6.125 1.0625 C 4.300781 1.019531 3.421875 -0.0820312 3.484375 -2.25 L 4.1875 -30.359375 C 4.226562 -32.242188 5.175781 -33.1875 7.03125 -33.1875 Z M 7.03125 -33.1875 "/></g></g></g><g fill="#ff914d" fill-opacity="1"><g transform="translate(252.012173, 250.124981)"><g><path d="M 7.859375 -13.140625 C 7.960938 -10.847656 8.992188 -8.84375 10.953125 -7.125 C 13.210938 -5.125 15.757812 -4.132812 18.59375 -4.15625 C 22.71875 -4.195312 25.488281 -5.003906 26.90625 -6.578125 C 28.257812 -8.097656 29.375 -8.945312 30.25 -9.125 C 31.21875 -9.332031 31.90625 -9.03125 32.3125 -8.21875 C 33.257812 -6.34375 32.8125 -4.582031 30.96875 -2.9375 C 27.738281 -0.0703125 23.492188 1.335938 18.234375 1.296875 C 14.367188 1.265625 10.988281 0.0546875 8.09375 -2.328125 C 4.5 -5.285156 2.703125 -9.289062 2.703125 -14.34375 C 2.703125 -18.507812 3.832031 -22.222656 6.09375 -25.484375 C 8.925781 -29.546875 12.585938 -31.71875 17.078125 -32 C 21.742188 -32.28125 25.394531 -31.128906 28.03125 -28.546875 C 30.519531 -26.117188 31.710938 -23.359375 31.609375 -20.265625 C 31.523438 -17.773438 30.398438 -16.378906 28.234375 -16.078125 Z M 8.53125 -18.140625 L 26.359375 -20.75 C 26.054688 -22.507812 25.132812 -23.882812 23.59375 -24.875 C 21.820312 -26.007812 19.929688 -26.566406 17.921875 -26.546875 C 15.128906 -26.546875 12.722656 -25.300781 10.703125 -22.8125 C 9.816406 -21.695312 9.09375 -20.140625 8.53125 -18.140625 Z M 8.53125 -18.140625 "/></g></g></g><g fill="#ff914d" fill-opacity="1"><g transform="translate(284.802858, 250.124981)"><g><path d="M 28.78125 -8.375 C 30.90625 -10.375 32.242188 -13.191406 32.796875 -16.828125 L 21.625 -16.71875 C 19.101562 -16.695312 17.8125 -17.773438 17.75 -19.953125 C 17.6875 -21.960938 19.148438 -22.988281 22.140625 -23.03125 L 37.640625 -23.265625 C 39.566406 -23.285156 40.445312 -22.285156 40.28125 -20.265625 C 39.675781 -12.554688 37.410156 -6.921875 33.484375 -3.359375 C 29.765625 0.0546875 24.75 1.671875 18.4375 1.484375 C 13.601562 1.347656 9.710938 -0.660156 6.765625 -4.546875 C 3.796875 -8.429688 2.316406 -13.488281 2.328125 -19.71875 C 2.328125 -27.15625 3.867188 -33.140625 6.953125 -37.671875 C 9.984375 -42.160156 13.984375 -44.851562 18.953125 -45.75 C 24.054688 -46.59375 28.273438 -46.023438 31.609375 -44.046875 C 34.960938 -42.023438 36.90625 -40.101562 37.4375 -38.28125 C 37.957031 -36.4375 37.59375 -35.070312 36.34375 -34.1875 C 34.96875 -33.21875 33.144531 -33.957031 30.875 -36.40625 C 29.039062 -38.363281 26.492188 -39.414062 23.234375 -39.5625 C 21.253906 -39.632812 19.128906 -39.085938 16.859375 -37.921875 C 14.429688 -36.679688 12.515625 -34.726562 11.109375 -32.0625 C 9.441406 -28.988281 8.609375 -25.117188 8.609375 -20.453125 C 8.609375 -15.347656 9.519531 -11.613281 11.34375 -9.25 C 13.425781 -6.539062 15.765625 -5.113281 18.359375 -4.96875 C 22.679688 -4.726562 26.15625 -5.863281 28.78125 -8.375 Z M 28.78125 -8.375 "/></g></g></g><g fill="#ff914d" fill-opacity="1"><g transform="translate(325.783324, 250.124981)"><g><path d="M 15.28125 1.703125 C 6.207031 1.722656 1.640625 -3.128906 1.578125 -12.859375 C 1.515625 -19.191406 3.597656 -24.085938 7.828125 -27.546875 C 12.679688 -31.523438 17.753906 -32.675781 23.046875 -31 C 23.640625 -31.507812 24.550781 -31.617188 25.78125 -31.328125 C 28.207031 -30.785156 29.191406 -29.222656 28.734375 -26.640625 C 28.265625 -24.109375 27.976562 -19.800781 27.875 -13.71875 C 27.789062 -8.863281 28.335938 -5.421875 29.515625 -3.390625 C 31.234375 -0.441406 30.988281 1.253906 28.78125 1.703125 C 26.257812 2.222656 24.796875 1.148438 24.390625 -1.515625 C 20.203125 0.609375 17.164062 1.679688 15.28125 1.703125 Z M 18.8125 -4.40625 C 19.539062 -4.664062 20.800781 -5.53125 22.59375 -7 C 21.863281 -15.695312 21.96875 -21.6875 22.90625 -24.96875 C 20.9375 -26.195312 18.882812 -26.550781 16.75 -26.03125 C 15.25 -25.664062 14.054688 -25.148438 13.171875 -24.484375 C 9.566406 -21.867188 7.675781 -18.1875 7.5 -13.4375 C 7.550781 -7.25 9.671875 -4.015625 13.859375 -3.734375 C 15.617188 -3.609375 17.269531 -3.832031 18.8125 -4.40625 Z M 18.8125 -4.40625 "/></g></g></g><g fill="#ff914d" fill-opacity="1"><g transform="translate(356.329387, 250.124981)"><g><path d="M 14.921875 -48.84375 C 16.984375 -48.84375 18.015625 -47.835938 18.015625 -45.828125 C 17.972656 -40.671875 17.882812 -35.960938 17.75 -31.703125 L 23.90625 -31.734375 C 26.394531 -31.753906 27.640625 -30.742188 27.640625 -28.703125 C 27.640625 -26.640625 26.453125 -25.609375 24.078125 -25.609375 C 21.921875 -25.609375 19.757812 -25.609375 17.59375 -25.609375 L 17.078125 -1.9375 C 17.054688 0.257812 15.953125 1.335938 13.765625 1.296875 C 11.953125 1.265625 11.066406 0.164062 11.109375 -2 L 11.65625 -25.609375 C 9.257812 -25.609375 6.878906 -25.609375 4.515625 -25.609375 C 2.773438 -25.609375 1.90625 -26.597656 1.90625 -28.578125 C 1.90625 -30.617188 2.867188 -31.640625 4.796875 -31.640625 C 7.117188 -31.640625 9.453125 -31.648438 11.796875 -31.671875 L 12.140625 -46.015625 C 12.171875 -47.898438 13.097656 -48.84375 14.921875 -48.84375 Z M 14.921875 -48.84375 "/></g></g></g><g fill="#ff914d" fill-opacity="1"><g transform="translate(384.357865, 250.124981)"><g><path d="M 7.859375 -13.140625 C 7.960938 -10.847656 8.992188 -8.84375 10.953125 -7.125 C 13.210938 -5.125 15.757812 -4.132812 18.59375 -4.15625 C 22.71875 -4.195312 25.488281 -5.003906 26.90625 -6.578125 C 28.257812 -8.097656 29.375 -8.945312 30.25 -9.125 C 31.21875 -9.332031 31.90625 -9.03125 32.3125 -8.21875 C 33.257812 -6.34375 32.8125 -4.582031 30.96875 -2.9375 C 27.738281 -0.0703125 23.492188 1.335938 18.234375 1.296875 C 14.367188 1.265625 10.988281 0.0546875 8.09375 -2.328125 C 4.5 -5.285156 2.703125 -9.289062 2.703125 -14.34375 C 2.703125 -18.507812 3.832031 -22.222656 6.09375 -25.484375 C 8.925781 -29.546875 12.585938 -31.71875 17.078125 -32 C 21.742188 -32.28125 25.394531 -31.128906 28.03125 -28.546875 C 30.519531 -26.117188 31.710938 -23.359375 31.609375 -20.265625 C 31.523438 -17.773438 30.398438 -16.378906 28.234375 -16.078125 Z M 8.53125 -18.140625 L 26.359375 -20.75 C 26.054688 -22.507812 25.132812 -23.882812 23.59375 -24.875 C 21.820312 -26.007812 19.929688 -26.566406 17.921875 -26.546875 C 15.128906 -26.546875 12.722656 -25.300781 10.703125 -22.8125 C 9.816406 -21.695312 9.09375 -20.140625 8.53125 -18.140625 Z M 8.53125 -18.140625 "/></g></g></g></svg>